<svg width="203" height="79" viewBox="0 0 203 79" fill="none" xmlns="http://www.w3.org/2000/svg">
<g opacity="0.62">
<path d="M132.562 14.9502C136.104 15.2377 140.199 14.5335 143.505 15.5958C149.012 17.3651 150.271 24.6477 146.334 28.5685C143.674 31.0691 140.779 30.9248 137.461 30.9297L132.557 30.9436C132.338 28.047 132.593 24.1581 132.49 21.1625C132.456 20.1445 132.447 15.645 132.562 14.9502ZM136.265 27.904C139.159 27.6947 140.495 28.4636 143.151 26.7083C144.403 25.3654 144.767 24.5891 144.724 22.6802C144.696 21.4257 144.362 20.2941 143.409 19.4226C141.264 17.4612 138.627 18.3612 136.296 18.1005C136.393 19.9698 136.304 22.0778 136.323 23.9789C136.332 24.8051 136.383 27.189 136.265 27.904Z" fill="#2767A9"/>
<path d="M109.841 36.7161C114.053 36.7299 120.223 36.1107 123.317 39.4666C126.256 42.6547 126.011 47.755 122.783 50.6843C119.47 53.6763 114.168 53.0294 109.824 53.0449C109.634 50.1583 109.79 46.5264 109.747 43.5675C109.724 41.9413 109.662 38.1418 109.841 36.7161ZM112.485 51.9396C115.121 51.9424 117.933 52.2227 119.944 50.2329C119.996 50.1814 120.046 50.1282 120.095 50.0733C122.589 47.6935 122.766 42.9682 120.623 40.3128C118.271 37.3985 115.644 38.0174 112.473 37.8677C112.511 40.7879 112.522 43.7082 112.506 46.6286C112.506 48.1414 112.576 50.4882 112.485 51.9396Z" fill="#2767A9"/>
<path d="M35.8479 15.0103C38.6208 15.1008 41.4329 14.9194 44.1964 15.0968C45.7895 15.1991 48.1117 16.3413 48.8649 17.8103C50.5805 21.1566 49.6237 23.9164 46.4377 25.7833C46.7423 26.3742 49.504 30.3127 49.9395 30.8158C49.3509 30.8823 48.8391 30.9122 48.247 30.9401C47.4677 30.9575 46.6697 30.9351 45.9064 30.7768C44.896 29.7131 43.7239 27.7784 42.7474 26.4974C41.6772 26.5732 40.6145 26.5611 39.5428 26.5497C39.5943 27.9054 39.5243 29.517 39.4885 30.8762C38.2213 31.0038 37.0394 30.8942 35.7586 30.9273C35.651 27.5896 35.704 24.1376 35.6959 20.7876C35.6926 19.4104 35.628 16.209 35.8479 15.0103ZM44.9201 22.798C45.5509 22.1368 45.8605 21.7044 45.8232 20.7461C45.6873 17.2458 41.742 18.3002 39.5359 18.0727C39.5676 19.7535 39.5551 21.8242 39.4931 23.5081C41.3473 23.5238 43.3383 23.7671 44.9201 22.798Z" fill="#2767A9"/>
<path d="M182.794 14.9111C184.128 15.0445 185.326 14.9994 186.661 15.0007C186.659 18.8766 186.742 26.5197 186.588 30.7492C186.585 30.8447 186.353 30.8923 186.224 30.9354C185.368 31.0006 184.387 30.9185 183.523 30.8663C182.409 29.873 176.047 21.6295 175.546 21.5152C175.77 24.0286 175.641 28.2366 175.641 30.8755C174.314 31.0019 173.192 30.8566 171.897 30.944L171.851 28.7434C171.83 25.9284 171.825 23.1134 171.835 20.2984C171.836 19.4046 171.694 15.4565 172.142 14.9975C172.615 15.0398 173.387 15.0251 173.881 15.0222C175.595 15.0122 175.988 16.3242 177.028 17.4599C179.021 19.6373 180.77 22.3052 182.783 24.4534C182.86 21.3638 182.762 18.0431 182.794 14.9111Z" fill="#2767A9"/>
<path d="M84.2617 14.9126C85.4025 15.0688 86.8205 15.0465 87.9686 14.9453C88.03 18.8868 87.9954 26.4373 87.9648 30.6893C87.9639 30.8282 87.7442 30.8704 87.5994 30.919C86.7104 31.0029 85.7057 30.9193 84.8011 30.8818C82.3819 27.9495 79.0485 24.1726 76.8816 21.2064C77.0384 22.5546 76.9764 24.2566 76.9818 25.643C76.9886 27.3316 77.0499 29.1781 76.9795 30.8537L76.9463 30.8581C75.633 31.0255 74.6104 30.8808 73.2903 30.9642C73.1993 28.9431 72.9539 15.819 73.4286 14.9644C74.0626 15.0468 75.9737 14.9315 76.2904 15.203C78.7872 17.3436 82.0549 22.3779 84.2491 24.5337C84.1963 21.4937 84.1807 17.9405 84.2617 14.9126Z" fill="#2767A9"/>
<path d="M112.588 14.9663C113.429 15.072 115.157 14.8273 115.736 15.3794C116.865 16.4552 117.994 17.9184 118.976 19.1345C120.462 20.9811 121.964 22.8142 123.483 24.6335C123.368 23.4239 123.313 15.8647 123.604 15.1941C124.191 14.8709 126.429 15.0176 127.148 15.0839C127.24 18.4823 127.096 22.1145 127.158 25.5365C127.172 26.3285 127.205 30.2295 127.117 30.7827L126.881 30.905C125.909 31.0017 125.01 30.935 124.036 30.8875C121.464 27.9619 118.468 24.2718 116.042 21.2255C116.201 22.4662 116.143 24.2193 116.146 25.5132C116.15 27.2356 116.213 29.1471 116.135 30.8547C114.851 31.0374 113.768 30.8797 112.455 30.9641C112.303 29.2561 112.371 25.8587 112.378 24.193C112.383 22.905 112.217 15.6115 112.588 14.9663Z" fill="#2767A9"/>
<path d="M6.66526 14.9847C7.8762 15.054 9.16989 15.0028 10.3895 14.9758C10.3997 16.2501 10.4934 20.1141 10.3186 21.1578C12.6965 21.1738 15.0746 21.1712 17.4524 21.1496C17.3749 20.2519 17.3371 15.9612 17.5745 15.216C17.8685 14.9365 20.6273 14.9875 21.2214 14.9795C21.346 16.307 21.3091 30.1949 21.1312 30.7962L20.9253 30.9015C19.9789 30.9894 18.4435 30.916 17.4303 30.9127C17.5335 28.9805 17.2298 26.2918 17.4243 24.4387C15.5284 24.4094 12.0717 24.5477 10.3899 24.3937C10.4493 26.3544 10.4424 28.9199 10.357 30.8697C8.99869 31.0139 7.81453 30.8561 6.46911 30.9502C6.39747 27.514 6.37347 24.0771 6.39712 20.6402C6.39721 19.7704 6.26061 15.458 6.66526 14.9847Z" fill="#2767A9"/>
<path d="M98.4163 15.0085C99.3671 14.9945 101.037 14.7763 101.903 15.189C102.376 15.4152 108.604 29.4373 109.157 30.8317C107.753 31.0072 106.605 30.9037 105.205 30.9683C104.865 29.7968 104.216 28.7438 103.861 27.5227C103.236 27.5672 102.413 27.5507 101.773 27.5557C100.045 27.56 98.1065 27.6055 96.3964 27.5095C95.9707 28.8021 95.5879 29.6273 95.0215 30.8749C93.666 30.9967 92.5048 30.8772 91.1523 30.9296L95.4799 21.2542C95.8727 20.3711 97.9689 15.4998 98.4163 15.0085ZM97.7089 24.6796L100.187 24.6869L102.694 24.7C102.142 23.6781 100.511 19.1756 100.051 18.8469C99.9043 19.5629 98.1214 23.8377 97.7089 24.6796Z" fill="#2767A9"/>
<path d="M59.1721 14.9749C60.134 15.0065 61.9764 14.874 62.7881 15.2176C63.3388 15.7436 69.2301 29.0545 69.9162 30.8564C68.6386 30.9858 67.2867 30.9342 65.9973 30.9126C65.6566 29.8246 65.0643 28.5479 64.599 27.5056C64.1207 27.5463 63.4597 27.5411 62.9666 27.5514C61.2435 27.5729 59.1009 27.4566 57.3904 27.6345C57.1363 27.6609 56.1118 30.3288 55.8016 30.8703C54.6355 30.9904 53.2236 30.9193 52.0303 30.8918C53.359 27.3984 55.3514 23.5923 56.814 20.1068C57.1782 19.2388 58.823 15.4529 59.1721 14.9749ZM58.4811 24.6668C59.3804 24.6738 60.3109 24.6935 61.2072 24.6865L63.5256 24.6975C63.1058 23.8614 61.1869 19.0854 60.8668 18.8313C60.5185 20.1369 59.0832 23.29 58.4811 24.6668Z" fill="#2767A9"/>
<path d="M158.041 14.9905C159.128 15.0063 160.494 14.9927 161.545 15.131C162.962 18.4368 164.586 21.7374 166.01 25.0494C166.749 26.7705 168.006 29.1083 168.499 30.8512C167.146 30.9855 166.029 30.9083 164.683 30.9387C164.255 29.8118 163.715 28.6215 163.222 27.5209C162.595 27.5575 161.834 27.5461 161.195 27.5529C159.504 27.5744 157.59 27.5835 155.915 27.5046C155.373 28.559 155.176 29.5462 154.456 30.8597C153.275 31.0062 151.88 30.9276 150.687 30.8736C151.329 29.0059 152.629 26.3257 153.473 24.464L157.409 15.6772C157.615 15.2251 157.629 15.1449 158.041 14.9905ZM157.007 24.6549C157.858 24.6754 158.709 24.6859 159.56 24.6865L162.178 24.6932C161.763 23.9192 159.755 18.9845 159.569 18.8545C158.995 20.1752 157.677 23.6425 157.007 24.6549Z" fill="#2767A9"/>
<path d="M83.5146 36.6262C83.7271 36.6771 83.9459 36.8762 84.0499 37.0671C85.4983 39.7265 86.5333 42.8403 88.0062 45.4655C89.762 46.3555 91.1104 47.1589 92.4794 48.5836C92.0192 48.4527 91.3816 48.0432 90.9176 47.8061C90.1126 47.3948 89.5528 47.22 88.6851 46.9733C89.1179 47.775 91.1753 52.3029 91.3983 53.0584L88.757 53.0411L86.0035 46.9735C85.6996 46.8342 85.6577 46.9175 85.2668 47.0115C83.3099 47.2788 81.5682 48.0006 79.4054 47.6443C78.6769 49.5226 77.8431 50.9391 77.1845 53.0266L75.8027 53.0543C76.4769 50.8753 77.1646 49.5435 78.1749 47.4802C77.7876 47.3117 75.9795 46.3313 75.9067 46.0052C76.3104 46.0199 77.7711 46.5036 78.591 46.6133C80.3461 43.5977 81.6653 39.3913 83.5146 36.6262ZM80.0252 46.3739C80.5893 46.2146 81.5517 45.9102 82.0968 45.8049C83.1046 45.5058 84.2059 45.4177 85.254 45.2976C84.8845 44.619 83.0217 40.3346 82.7666 40.1924C81.8356 42.2395 80.9787 44.305 80.0252 46.3739Z" fill="#2767A9"/>
<path d="M93.357 36.6892C94.1266 36.7101 94.546 36.6508 95.1092 37.2422C97.7258 39.9896 100.186 42.894 102.765 45.6804C103.663 46.6503 104.676 47.7281 105.456 48.7842C105.124 45.2065 105.51 40.9637 105.45 37.3363C105.446 37.0822 105.629 36.9724 105.806 36.8384C106.191 36.7885 106.065 36.7551 106.4 36.9088C106.73 37.4338 106.606 52.9233 106.457 53.0618C106.178 53.0711 105.907 52.8267 105.67 52.656C104.858 51.9541 102.408 49.0309 101.633 48.1393L94.3226 39.8137C94.429 40.4715 94.4199 41.0256 94.4166 41.6874C94.3993 45.13 94.3986 48.573 94.4333 52.0154C94.436 52.2805 94.3333 52.3846 94.1536 52.5443C94.0481 52.5679 93.818 52.6207 93.7303 52.6004C93.6404 52.5795 93.4459 52.5512 93.4348 52.4727C93.15 50.4592 93.0954 37.6488 93.357 36.6892Z" fill="#2767A9"/>
<path d="M68.7582 36.8191C72.0254 36.5139 74.0637 37.3349 75.3863 40.3666C74.9454 40.595 74.5311 40.7532 74.0707 40.9367C73.0772 38.8163 71.9107 37.4565 69.3915 37.7883C66.3869 38.1839 65.9853 40.7643 68.4785 42.3788C71.538 44.36 77.5768 46.0106 75.1713 50.7489C74.4853 52.1001 72.9033 52.5426 71.5602 52.904C68.2688 53.3776 65.9762 52.5414 64.5513 49.4866C65.0018 49.2959 65.4276 49.0838 65.8664 48.869C67.0571 51.0167 68.3825 52.5829 71.2947 52.0539C71.8829 51.8518 72.9544 51.306 73.2002 50.7353C74.2579 48.2798 71.6272 46.8363 69.8149 45.9484C66.9988 44.5686 63.5067 42.6954 65.3507 39.0136C66.0151 37.6868 67.4339 37.2088 68.7582 36.8191Z" fill="#2767A9"/>
<path d="M130.724 36.8111C133.03 36.5535 135.26 37.1779 136.701 39.0799C137.037 39.5232 137.163 39.9251 136.912 40.4375C136.675 40.7164 136.256 40.8008 135.895 40.9146C135.405 39.731 135.031 39.0665 133.918 38.268C133.219 37.7603 131.61 37.6203 130.764 37.8326C129.157 38.2371 127.79 40.0155 129.257 41.4477C130.923 43.0738 133.033 43.782 134.968 44.9751C137.238 46.3742 138.49 48.3535 136.953 50.8245C136.096 52.1826 134.851 52.5946 133.325 52.9164C130.818 53.2359 128.392 52.7168 126.866 50.55C126.627 50.2114 126.646 49.8875 126.744 49.5098C126.922 49.192 127.306 49.0956 127.657 48.9571C128.291 49.7817 128.98 51.1498 129.96 51.5803C134.836 53.7225 138.027 48.8768 132.264 46.253C129.479 44.9845 125.015 42.5965 127.242 38.99C128.146 37.5274 129.121 37.2599 130.724 36.8111Z" fill="#2767A9"/>
<path d="M26.7187 14.964C27.8408 15.0657 29.2638 15.0058 30.3842 14.947C30.169 20.0057 30.4676 25.2772 30.3833 30.3476C30.3799 30.5489 30.3446 30.7185 30.206 30.8725C29.5222 30.9934 27.4186 30.9461 26.6186 30.9446C26.4744 29.4994 26.4072 15.5385 26.7187 14.964Z" fill="#2767A9"/>
<path d="M96.2365 66.2456C97.9678 66.3995 103.332 65.8619 100.772 69.368C101.748 70.2006 102.259 70.773 101.356 71.9706C100.121 72.8884 97.6197 72.6737 96.0488 72.6732C96.0239 71.775 95.8289 66.6985 96.2365 66.2456ZM97.4356 71.5218C98.0595 71.5008 99.4352 71.4952 99.9803 71.3495C100.172 71.0088 100.188 70.9519 100.173 70.5653C99.7335 69.737 98.2848 70.0789 97.4199 70.0374C97.5101 70.6848 97.5001 70.8687 97.4356 71.5218ZM97.4372 68.9538C98.1639 68.963 99.0498 69.0478 99.6958 68.7584C99.9506 68.3265 99.9228 68.4885 99.9337 68.0245C99.453 67.232 98.281 67.4859 97.4469 67.4216C97.4625 67.9083 97.5018 68.4772 97.4372 68.9538Z" fill="#2767A9"/>
<path d="M79.3399 66.2282C81.0002 66.1885 81.1215 67.5086 81.7202 68.863C82.2752 70.152 82.8584 71.4288 83.4695 72.6926C81.9592 72.7095 81.9349 72.7718 81.1679 71.4399C81.0639 71.2593 80.6267 71.29 80.4117 71.2793C79.6701 71.2938 79.1707 71.2885 78.4337 71.2276C77.8484 72.7129 77.8204 72.7434 76.2217 72.6141C76.8521 71.3818 78.6632 66.8189 79.3399 66.2282ZM79.7674 70.0569L80.5895 70.0436L80.6527 69.9566C80.4844 69.4453 80.1361 68.2732 79.7432 68.0106C79.5356 68.5137 79.0579 69.4712 79.0849 69.9291L79.1978 70.0702L79.7674 70.0569Z" fill="#2767A9"/>
<path d="M106.167 66.2034C107.029 66.2278 107.472 66.2723 107.8 67.1134C108.486 68.8691 109.752 70.8996 110.234 72.6896L108.771 72.6433C108.246 71.8482 108.504 71.3425 107.423 71.271L105.195 71.2778C105.047 71.76 104.862 72.2043 104.676 72.6724C104.218 72.6899 103.587 72.649 103.115 72.6307C104.173 70.6028 104.92 68.0898 106.167 66.2034ZM105.818 70.0863C106.222 70.0738 106.655 70.0521 107.057 70.0518L107.394 70.0933C107.588 69.7808 106.876 68.1394 106.686 68.0206C106.3 68.7531 106.1 69.3174 105.818 70.0863Z" fill="#2767A9"/>
<path d="M112.007 66.2083C112.44 66.2792 112.953 66.251 113.397 66.244C113.432 67.3545 113.387 68.4737 113.414 69.584C113.439 70.6047 113.558 71.4241 114.77 71.4506C117.136 71.5021 115.424 67.3439 116.345 66.4177C116.686 66.2448 117.238 66.3016 117.64 66.3088L117.658 67.5632C117.68 68.6357 117.773 69.5944 117.546 70.6816C117.041 73.096 113.404 73.4539 112.22 71.4776C111.785 70.7513 111.775 67.0297 112.007 66.2083Z" fill="#2767A9"/>
<path d="M122.579 66.237C123.642 66.104 126.7 66.6675 125.382 68.0318C124.181 68.4651 124.122 66.8232 122.434 67.6786C121.98 67.9105 121.638 68.3131 121.485 68.7968C121.291 69.3992 121.372 70.1363 121.66 70.6933C122.032 71.4095 123.532 71.6167 124.181 71.2881C124.742 70.7464 124.421 70.0701 124.621 69.3266C124.908 69.3108 125.206 69.2694 125.468 69.3783C125.97 69.8915 125.793 71.1772 125.783 71.9613C124.473 72.7542 122.892 73.0548 121.496 72.306C120.695 71.8861 120.099 71.1633 119.842 70.3014C119.61 69.5094 119.71 68.6578 120.121 67.9407C120.682 66.9679 121.536 66.5254 122.579 66.237Z" fill="#2767A9"/>
<path d="M85.2941 66.1982C85.7279 66.2821 86.2636 66.2475 86.7125 66.2383C86.7395 67.9567 86.7431 69.6754 86.7233 71.3939C87.6218 71.3209 88.9613 71.3875 89.882 71.4129L89.7761 72.4744C89.1486 72.7101 86.0019 72.6819 85.2137 72.6922C85.1351 71.7258 85.0447 66.9564 85.2941 66.1982Z" fill="#2767A9"/>
<path d="M92.1631 66.2954C92.506 66.3341 92.8896 66.3351 93.1472 66.55C93.2134 66.7145 93.2863 66.9716 93.2941 67.2486C93.3414 68.9238 93.3739 70.7798 93.2037 72.4423C93.1223 72.5373 93.0573 72.6132 93.0087 72.67C92.5805 72.6876 92.2351 72.7562 91.9327 72.4926C91.718 71.6339 91.6192 66.8389 92.1631 66.2954Z" fill="#2767A9"/>
<path d="M191.928 14.9478C193.101 15.0509 194.497 15.0049 195.673 14.9782C195.674 19.1316 195.744 26.3023 195.622 30.7197C195.619 30.8292 195.4 30.8743 195.293 30.9085C194.232 30.9558 192.998 30.934 191.922 30.9392C191.665 28.145 191.962 24.1693 191.842 21.2578C191.809 20.4652 191.8 15.4604 191.928 14.9478Z" fill="#2767A9"/>
</g>
</svg>
